<?xml version="1.0" encoding="utf-8"?>
<!-- Generator: Adobe Illustrator 19.2.1, SVG Export Plug-In . SVG Version: 6.00 Build 0)  -->
<svg version="1.1" id="Layer_1" xmlns="http://www.w3.org/2000/svg" xmlns:xlink="http://www.w3.org/1999/xlink" x="0px" y="0px"
	 viewBox="0 0 50 50" style="enable-background:new 0 0 50 50;" xml:space="preserve">
<style type="text/css">
	.st0{fill:#414142;}
	.st1{fill:#858589;}
	.st2{fill:#F8F8F9;}
	.st3{fill:#FCFCFC;}
	.st4{fill:#FDFDFD;}
</style>
<path class="st0" d="M36.4,50.1C36.6,50,36.8,50,37,50v0.1C36.8,50.1,36.6,50.1,36.4,50.1z"/>
<g>
	<path class="st1" d="M13,50.1c-0.2-0.2-0.4-0.2-0.6-0.3c-2-0.6-3.4-2.4-3.4-4.5c0-3.1,0-6.3,0-9.4c0-8.3,0-16.6,0-25
		c0-0.4,0.1-0.5,0.5-0.5c10.4,0,20.9,0,31.3,0c0.4,0,0.4,0.1,0.4,0.4c0,11.3,0,22.6,0,33.9c0,1.8-0.6,3.2-2,4.2
		c-0.6,0.5-1.4,0.8-2.2,0.9c-0.2-0.1-0.4,0-0.6,0.1C28.6,50.1,20.8,50.1,13,50.1z M23.4,30.2L23.4,30.2c0,4.4,0,8.7,0,13.1
		c0,0.2,0,0.4,0,0.6c0.1,1,1.1,1.6,2,1.4c0.9-0.2,1.3-0.9,1.3-1.9c0-8.7,0-17.5,0-26.2c0-0.2,0-0.5-0.1-0.7c-0.2-0.8-1-1.4-1.8-1.3
		c-0.9,0.1-1.5,0.8-1.5,1.9C23.4,21.4,23.4,25.8,23.4,30.2z M36.1,30.2c0-4.4,0-8.8,0-13.1c0-0.2,0-0.4,0-0.6
		c-0.2-1.2-1.5-1.8-2.5-1.2c-0.7,0.4-0.9,1.1-0.9,1.8c0,8.7,0,17.4,0,26.1c0,0.1,0,0.2,0,0.3c0.1,1.3,1,2,2.2,1.7
		c0.8-0.2,1.2-0.8,1.2-1.8C36.1,39,36.1,34.6,36.1,30.2z M14.1,30.2c0,2.1,0,4.2,0,6.3c0,2.4,0,4.8,0,7.2c0,1.2,1.1,1.9,2.2,1.6
		c0.7-0.2,1.2-0.9,1.2-1.9c0-8.8,0-17.5,0-26.3c0-0.2,0-0.3,0-0.5c-0.2-1.3-1.6-1.9-2.6-1.1c-0.5,0.4-0.7,0.9-0.7,1.6
		C14.1,21.4,14.1,25.8,14.1,30.2z"/>
	<path class="st1" d="M28.8,0.1c0.4,0.2,0.9,0.3,1.3,0.7c0.5,0.5,0.9,1,1,1.7c0.1,0.2,0.1,0.3,0.4,0.3c2.1,0,4.2,0,6.2,0
		c2.2,0,3.9,0.8,5.2,2.6c0.7,0.9,1,2,1.1,3.2c0,0.2,0,0.3-0.2,0.3c-0.1,0-0.2,0-0.3,0c-12.3,0-24.5,0-36.8,0c-0.6,0-0.6,0-0.6-0.6
		c0.3-2.7,2.3-4.9,5-5.3c0.4-0.1,0.8-0.1,1.2-0.1c2.1,0,4.2,0,6.2,0c0.3,0,0.4-0.1,0.4-0.3c0.3-1.1,0.9-1.8,2-2.2
		c0.1,0,0.2,0,0.3-0.2C23.8,0.1,26.3,0.1,28.8,0.1z"/>
	<path class="st2" d="M23.4,30.2c0-4.4,0-8.8,0-13.2c0-1,0.6-1.8,1.5-1.9c0.8-0.1,1.6,0.5,1.8,1.3c0,0.2,0.1,0.4,0.1,0.7
		c0,8.7,0,17.5,0,26.2c0,1.1-0.5,1.7-1.3,1.9c-0.9,0.2-1.9-0.4-2-1.4c0-0.2,0-0.4,0-0.6C23.4,38.9,23.4,34.5,23.4,30.2L23.4,30.2z"
		/>
	<path class="st3" d="M36.1,30.2c0,4.4,0,8.8,0,13.2c0,1-0.4,1.6-1.2,1.8c-1.1,0.3-2.1-0.4-2.2-1.7c0-0.1,0-0.2,0-0.3
		c0-8.7,0-17.4,0-26.1c0-0.7,0.2-1.4,0.9-1.8c1-0.6,2.3,0,2.5,1.2c0,0.2,0,0.4,0,0.6C36.1,21.5,36.1,25.9,36.1,30.2z"/>
	<path class="st4" d="M14.1,30.2c0-4.4,0-8.8,0-13.2c0-0.6,0.2-1.2,0.7-1.6c1.1-0.7,2.4-0.1,2.6,1.1c0,0.2,0,0.3,0,0.5
		c0,8.8,0,17.5,0,26.3c0,1-0.4,1.7-1.2,1.9c-1.1,0.3-2.2-0.4-2.2-1.6c0-2.4,0-4.8,0-7.2C14.1,34.3,14.1,32.2,14.1,30.2z"/>
</g>
</svg>
