<?xml version="1.0" encoding="utf-8"?>
<!-- Generator: Adobe Illustrator 19.2.1, SVG Export Plug-In . SVG Version: 6.00 Build 0)  -->
<svg version="1.1" id="Layer_1" xmlns="http://www.w3.org/2000/svg" xmlns:xlink="http://www.w3.org/1999/xlink" x="0px" y="0px"
	 viewBox="0 0 50 50" style="enable-background:new 0 0 50 50;" xml:space="preserve">
<style type="text/css">
	.st0{fill:#858589;}
	.st1{fill:#81807D;}
	.st2{fill:#C5C4C4;}
	.st3{fill:#E7E7E7;}
	.st4{fill:#FEFEFE;}
</style>
<g>
	<path class="st0" d="M48.7,13.7c-0.2,0.6,0,1.2-0.1,1.7c0,0.1,0.1,0.3-0.1,0.4c-0.2,0.6-0.1,1.2-0.1,1.8c-0.1,0.2-0.1,0.4-0.1,0.7
		c0,0.9-0.1,1.9,0,2.8c0,0.1,0,0.3,0,0.4c-0.3,0.1-0.1,0.3-0.2,0.5c0,0.1,0,0.1,0,0.2c-0.1,0-0.1,0.1,0,0.1c0,0,0,0.1,0,0.1
		c-0.5,0.2-1,0.4-1.6,0.4c-14.5,0-29.1,0-43.6,0c-0.4,0-0.9,0-1.3-0.1c0-0.2,0-0.4,0-0.6c0-0.2,0.1-0.4-0.2-0.5c0-0.4-0.1-0.8,0-1.2
		c0-0.4,0-0.8,0-1.1c0-0.4-0.1-0.9,0.1-1.3c0-0.1,0-0.1,0-0.2c0.2-0.1,0.2-0.2,0.2-0.4c0.1,0,0.2,0,0.3-0.1c0.5-0.5,1.2-0.6,1.9-0.6
		c8.7,0,17.3,0,26,0c0.2,0,0.4,0,0.6,0c0.6,0,1.1-0.4,1.2-0.9c0.1-0.3,0.4-0.7,0.4-1.1c0.1-0.1,0.1-0.3,0.2-0.4
		c0.4-0.4,0.6-0.9,0.8-1.3c0.1,0,0.2-0.1,0.3-0.2c0.7-0.7,1.5-1,2.5-1c3.9,0,7.8,0,11.8,0c0.4,0,0.8,0.1,1.1,0.4
		C48.7,12.7,48.5,13.2,48.7,13.7z"/>
	<path class="st0" d="M1.6,22.5c0.4,0.1,0.9,0.1,1.3,0.1c14.5,0,29.1,0,43.6,0c0.6,0,1.1-0.2,1.6-0.4c0,0.5,0,1,0,1.5
		c-0.1,0.4-0.1,0.8-0.1,1.2c0,0.9-0.1,1.8-0.1,2.7c0,0.1-0.1,0.3-0.1,0.4c0,0.6,0,1.1,0,1.7c-0.4,0.1-0.8,0.1-1.2,0.1
		c-14.9,0-29.9,0-44.8,0c-0.1-0.6,0.1-1.2-0.1-1.8c0-0.4,0.1-0.9-0.1-1.3c0-0.1,0-0.2,0-0.3c0,0,0.1-0.1,0-0.1
		C1.7,25,1.6,23.8,1.6,22.5z"/>
	<path class="st0" d="M2.4,40.8C2.4,40.8,2.4,40.8,2.4,40.8c0-0.4,0-0.8,0-1.1c14.6,0,29.2,0,43.8,0c0.4,0,0.8,0.1,1.2,0.1
		c0,0.3-0.2,0.6,0,0.8c0,0,0,0.1,0,0.1c-0.2,0.4,0,0.8-0.1,1.2c-0.4,0.3-0.9,0.2-1.4,0.2c-14.5,0-29,0-43.5,0
		C2.4,41.7,2.6,41.2,2.4,40.8z"/>
	<path class="st0" d="M20.6,9.6c0.1,0.5,0.2,0.9,0.3,1.4c-0.3,0.1,0,0.3-0.1,0.5c-0.2,0.2-0.4,0.1-0.6,0.1c-4.5,0-9.1,0-13.6,0
		c-1,0-1.9,0.1-2.9-0.1c0-0.1,0-0.1,0-0.2c0.2,0,0.2-0.2,0.2-0.4l0,0C4,10.8,4,10.7,4,10.6l0,0c0.1,0,0.1-0.1,0.1-0.2l0,0
		c0.1,0,0.1-0.1,0.1-0.2l0,0c0.1,0,0.1-0.1,0.1-0.2l0,0c0.1,0,0.1-0.1,0.1-0.2c0-0.1,0.1-0.1,0.1-0.2c0.1-0.1,0.1-0.2,0-0.3
		c0-0.1,0-0.1,0-0.2c0,0,0,0,0,0c0,0,0.1,0,0.1,0c0.1,0.2,0.2,0.1,0.3,0c0.2-0.2,0.5-0.2,0.7-0.2c4.5,0,9.1,0,13.6,0
		c0.4,0,0.8,0.2,1.1,0.6C20.4,9.4,20.4,9.7,20.6,9.6z"/>
	<path class="st0" d="M2.4,40.8c0.2,0.4,0,0.9,0.1,1.3c0,0.6,0.1,1.2,0.1,1.8c0,0.3,0.1,0.5,0.4,0.5c0.4,0,0.8,0.1,1.1,0.1
		c14.1,0,28.2,0,42.4,0c0.3,0,0.5,0,0.8-0.2l0,0c0,0.1,0,0.1,0,0.2c-0.1,0.1-0.1,0.2-0.1,0.3c-0.2,0.1-0.4,0.2-0.5,0.3
		c-14.3,0-28.5,0-42.8,0c-0.4,0-0.7,0-1.1-0.2c-0.1-0.1-0.1-0.1-0.2-0.2c0-0.1-0.1-0.2-0.1-0.3c0-0.1,0-0.2,0-0.4c0-0.2,0-0.4,0-0.7
		c0,0,0-0.1,0-0.1c0-0.7,0-1.4-0.1-2.1C2.3,41,2.2,40.9,2.4,40.8z"/>
	<path class="st0" d="M3,13.1c0.1-0.2,0-0.4,0.2-0.5c0.4,0.2,0.7,0.2,1.1,0.2c5.3,0,10.6,0,15.9,0c0.5,0,1,0.2,1.4-0.2
		c0.4,0.2,0.7,0.2,1.1,0.2c2.3,0,4.5,0,6.8,0c0.6,0,1.1,0,1.7,0c-0.4,0.4-0.8,0.7-1.4,0.7c-8.2,0-16.4,0-24.6,0
		c-0.3,0-0.5,0-0.8,0.1c-0.1,0-0.2,0.1-0.3,0.2c-0.1,0.3-0.3,0.3-0.5,0.3c-0.2,0-0.5,0-0.7,0.1C3.1,13.8,3.2,13.4,3,13.1z"/>
	<path class="st0" d="M3.8,11.3c0.9,0.2,1.9,0.1,2.8,0.1c4.5,0,9,0,13.5,0c0.2,0,0.4,0,0.6-0.1c0.1,0.1,0.1,0.4,0.3,0.4
		c0,0.1,0,0.3,0,0.4c-0.2,0.1-0.4,0.1-0.6,0.1c-4.5,0-9,0-13.5,0c-1.2,0-2.4-0.3-3.6,0.3C3.5,12.1,3.6,11.7,3.8,11.3z"/>
	<path class="st0" d="M3.4,12.5c1.2-0.8,2.4-0.4,3.6-0.4c4.5,0,9,0,13.5,0c0.2,0,0.4,0,0.6-0.2c0.2,0.3,0.4,0.5,0.6,0.8
		c-0.4,0.5-1,0.3-1.4,0.3c-5.3,0-10.6,0-15.9,0c-0.4,0-0.8,0-1.1-0.3C3.3,12.7,3.3,12.5,3.4,12.5z"/>
	<path class="st0" d="M48.6,12.1c-0.3-0.3-0.7-0.4-1.1-0.4c-3.9,0-7.8,0-11.8,0c-1,0-1.8,0.3-2.5,1c-0.1,0.1-0.2,0.2-0.3,0.2
		c0,0,0,0,0,0c0-0.1,0-0.2,0-0.3l0,0c0.1,0,0.1,0,0.1-0.1l0,0c0.1,0,0.2-0.1,0.2-0.2c0,0,0,0,0,0c0.1,0,0.2,0,0.2-0.1
		c0.1,0,0.2-0.1,0.2-0.2c0,0,0,0,0,0c0.3-0.1,0.6-0.3,0.8-0.4c0.2-0.1,0.4-0.2,0.6-0.3c0.1,0.1,0.3,0.1,0.4,0.1c4.2,0,8.4,0,12.6,0
		c0.4,0,0.6,0.1,0.6,0.5C48.6,11.9,48.6,12,48.6,12.1z"/>
	<path class="st0" d="M21.5,12.6c-0.2-0.2-0.4-0.4-0.7-0.6c0-0.1,0-0.3,0-0.4l0,0c0.1,0.1,0.3,0.2,0.4,0.3c0,0,0,0,0,0
		c0.1,0.1,0.2,0.2,0.3,0.2c0,0,0,0,0,0c0,0.1,0.1,0.1,0.1,0.1c0,0,0,0,0,0c0.1,0.2,0.3,0.2,0.5,0.2c3.4,0,6.9,0,10.3,0
		c0.2,0,0.4-0.1,0.5,0.1c0,0,0,0,0,0c0,0-0.1,0.1-0.1,0.1c0,0,0,0,0,0c-0.1,0.1-0.1,0.2-0.2,0.2c-0.1,0-0.1,0-0.2,0
		c-0.2,0-0.4,0-0.7,0c-0.2,0-0.4,0-0.6,0c-0.6,0-1.1,0-1.7,0c-2.3,0-4.6,0-6.9,0C22.3,12.9,21.9,12.9,21.5,12.6z"/>
	<path class="st0" d="M3,16.2c0-0.2,0-0.3,0-0.5c0.2,0.5,0.7,0.3,1,0.2c0.3,0,0.4-0.3,0.4-0.6c0-0.2,0-0.5,0-0.7
		c0.3-0.8,0.3-0.8,1.1-0.8c8.3,0,16.6,0,25,0c0.6,0,1.2-0.2,1.9-0.1c0,0.1-0.1,0.1-0.1,0.2c-0.4,0-0.8,0-1.2,0c-0.1,0-0.2,0-0.2,0
		c-8.6,0-17.1,0-25.7,0c-0.4,0-0.4,0.2-0.3,0.5c0,0,0,0.1,0,0.1c-0.5,0-0.2,0.4-0.3,0.7c0,0.2,0,0.4,0,0.6c0,0.1,0,0.3,0,0.4
		c-0.4,0.1-0.8-0.1-1.2,0.1c0,0-0.1,0-0.1,0C3.2,16.2,3.1,16.2,3,16.2z"/>
	<path class="st0" d="M47.4,40.6c-0.2-0.3,0-0.6,0-0.8c0-0.6,0.1-1.2,0.1-1.9c0-0.6,0-1.2,0.1-1.8c0-0.6,0-1.2,0-1.8
		c0.1-1.1,0.1-2.1,0.2-3.2c0,0,0.1,0,0.1,0c-0.1,1.9-0.1,3.8-0.2,5.7c0,1.1-0.1,2.2-0.2,3.3C47.5,40.3,47.6,40.5,47.4,40.6z"/>
	<path class="st0" d="M5.5,8.7c1,0,2,0,2.9,0c3.6,0,7.3,0,10.9,0c0,0,0,0.1,0,0.1C14.8,8.8,10.2,8.8,5.5,8.7
		C5.5,8.7,5.5,8.7,5.5,8.7z"/>
	<path class="st0" d="M4.4,14.6c0,0.2,0,0.5,0,0.7c0,0.3-0.1,0.6-0.4,0.6c-0.3,0-0.8,0.2-1-0.2c0-0.9,0-1.8,0-2.6
		c0.1,0.4,0,0.7,0.1,1.1c0,0.3,0,0.6,0,0.8c0,0.1,0,0.2,0.1,0.3c0.3,0.2,0.9-0.1,1-0.4C4.3,14.8,4.3,14.7,4.4,14.6z"/>
	<path class="st0" d="M48,11.4c-4.2,0-8.4,0-12.6,0c-0.1,0-0.3,0.1-0.4-0.1c0.7,0,1.5,0,2.2,0c3.4,0,6.9,0,10.3,0
		C47.7,11.3,47.9,11.2,48,11.4z"/>
	<path class="st0" d="M1.8,27.8C2,28.4,1.9,29,1.9,29.5C2,30.9,2,32.2,2.1,33.6c0,0.2,0,0.5,0.1,0.7c0,0.2,0,0.5,0,0.7
		c0,0.1-0.1,0.1-0.1,0.2C1.9,34.5,2,33.8,2,33.1C1.9,31.3,1.8,29.6,1.8,27.8C1.7,27.8,1.8,27.8,1.8,27.8z"/>
	<path class="st0" d="M33,12.7c-0.2-0.3-0.4-0.1-0.5-0.1c-3.4,0-6.8,0-10.1,0c0,0,0-0.1,0-0.1c3.4,0,6.8,0,10.3,0c0.2,0,0.4,0,0.6,0
		C33.2,12.6,33.1,12.7,33,12.7z"/>
	<path class="st0" d="M2.1,35.2c0-0.1,0.1-0.1,0.1-0.2c0,0.4,0,0.7,0,1.1c0,0.6,0.1,1.1,0.1,1.7c-0.1,0.6,0.1,1.2,0.1,1.9
		c0,0.3,0,0.7,0,1c0,0-0.1-0.1-0.1-0.1C2.2,38.8,2.1,37,2.1,35.2z"/>
	<path class="st0" d="M1.6,22.7c0,1.2,0.1,2.3,0.2,3.5c0,0,0,0.1,0,0.1c-0.1-0.1-0.1-0.2-0.1-0.3c-0.1-1.3-0.1-2.6-0.2-3.9
		c0.1,0,0.1,0,0.2,0C1.6,22.3,1.6,22.5,1.6,22.7z"/>
	<path class="st0" d="M47.9,31.2C47.9,31.2,47.8,31.2,47.9,31.2c-0.2-0.6,0-1.2,0-1.8c0-0.5,0-1.1,0-1.6c0.1,0,0.1,0,0.2,0
		c0,0.9,0,1.9-0.2,2.8C47.8,30.8,48,31,47.9,31.2z"/>
	<path class="st0" d="M48.3,21.1c-0.1-0.9,0-1.9,0-2.8c0-0.2,0-0.5,0.1-0.7c0,0,0.1,0,0.1,0C48.5,18.8,48.5,20,48.3,21.1z"/>
	<path class="st0" d="M47.3,44c0,0.1,0,0.2-0.1,0.3c0,0,0,0,0,0c0-0.1,0-0.2,0-0.4c0-0.7,0.1-1.3,0.1-2c0.1-0.4-0.1-0.8,0.1-1.2
		c0.1,0.8,0,1.7,0,2.5c-0.1,0.1-0.1,0.1,0,0.2C47.4,43.6,47.3,43.8,47.3,44z"/>
	<path class="st0" d="M48.1,27.8c-0.1,0-0.1,0-0.2,0c0-0.1,0.1-0.2,0.1-0.4c0-0.8,0.1-1.7,0.1-2.5c0,0,0.1,0,0.1,0
		C48.2,25.9,48.1,26.9,48.1,27.8z"/>
	<path class="st0" d="M1.5,17.9c-0.2,0.4-0.1,0.8-0.1,1.3c0,0.4,0,0.8,0,1.1c-0.2-0.7-0.1-1.5-0.1-2.3C1.3,18,1.4,17.9,1.5,17.9z"/>
	<path class="st0" d="M19.4,8.8C19.4,8.7,19.4,8.7,19.4,8.8c0.7,0,1.1,0.3,1.2,1.1c-0.2,0.1-0.1-0.1-0.2-0.2c0.1-0.1,0.1-0.2,0-0.2
		C20.2,9,19.8,8.9,19.4,8.8z"/>
	<path class="st0" d="M48.6,12.1c0-0.1,0-0.2,0-0.3c0.2,0.2,0.1,0.5,0.1,0.7c0,0.4,0,0.8,0,1.2C48.5,13.2,48.7,12.7,48.6,12.1z"/>
	<path class="st0" d="M4.6,9.7c0,0.1-0.1,0.1-0.1,0.2c-0.1,0-0.1,0.1-0.1,0.2c0,0,0,0,0,0c-0.1,0-0.1,0.1-0.1,0.2c0,0,0,0,0,0
		c-0.1,0-0.1,0.1-0.1,0.2c0,0,0,0,0,0c-0.1,0-0.1,0.1-0.1,0.2c0,0,0,0,0,0c-0.1,0-0.2,0.1-0.1,0.2c0,0,0,0,0,0c0,0,0,0-0.1,0
		c0.1-0.5,0.4-1,0.6-1.4c0,0.1,0,0.1,0,0.2C4.6,9.6,4.6,9.6,4.6,9.7z"/>
	<path class="st0" d="M48.2,24.9c0,0-0.1,0-0.1,0c0-0.4,0-0.7,0.1-1.1c0,0,0,0,0,0l0,0C48.2,24.2,48.3,24.6,48.2,24.9z"/>
	<path class="st0" d="M48.5,17.7C48.5,17.7,48.5,17.6,48.5,17.7c0-0.6-0.2-1.2,0-1.8C48.5,16.5,48.5,17.1,48.5,17.7z"/>
	<path class="st0" d="M48.2,23.8L48.2,23.8C48.2,23.8,48.2,23.8,48.2,23.8c-0.1-0.5-0.1-0.9-0.1-1.4c0,0,0-0.1,0-0.1
		c0,0,0-0.1,0-0.1c0-0.1,0-0.1,0-0.2c0,0,0.1,0,0.1,0C48.2,22.6,48.2,23.2,48.2,23.8z"/>
	<path class="st0" d="M1.8,27.8C1.8,27.8,1.7,27.8,1.8,27.8c0-0.4-0.3-0.8-0.1-1.2C1.9,27,1.8,27.4,1.8,27.8z"/>
	<path class="st0" d="M34.4,11.6c-0.3,0.1-0.6,0.3-0.8,0.4C33.8,11.7,34,11.5,34.4,11.6z"/>
	<path class="st0" d="M3,16.2c0.1,0,0.2,0.1,0.2,0.1c-0.3,0.1-0.6,0.2-0.9,0.3l0,0C2.5,16.3,2.8,16.3,3,16.2z"/>
	<path class="st0" d="M1.7,17.2c0.1-0.3,0.2-0.4,0.5-0.6l0,0C2,16.9,1.9,17.1,1.7,17.2L1.7,17.2z"/>
	<path class="st0" d="M4.7,9.3c0,0-0.1,0-0.1,0c0.1-0.2,0.2-0.4,0.5-0.5c0,0,0,0,0,0C5,9.1,4.8,9.1,4.7,9.3z"/>
	<path class="st0" d="M1.6,22.1c-0.1,0-0.1,0-0.2,0c0-0.2,0-0.3,0-0.5C1.7,21.6,1.6,21.9,1.6,22.1z"/>
	<path class="st0" d="M48.3,22C48.2,22,48.2,22.1,48.3,22c-0.1-0.2-0.2-0.4,0.1-0.5C48.3,21.7,48.4,21.9,48.3,22z"/>
	<path class="st0" d="M5.5,8.7C5.5,8.7,5.5,8.7,5.5,8.7C5.4,8.9,5.2,8.9,5.1,8.9c0,0,0,0,0,0C5.2,8.7,5.3,8.7,5.5,8.7z"/>
	<path class="st0" d="M1.7,17.4c0,0.2,0,0.3-0.2,0.4c-0.1-0.2,0-0.4,0.1-0.5C1.7,17.2,1.7,17.3,1.7,17.4C1.7,17.3,1.7,17.3,1.7,17.4
		z"/>
	<path class="st0" d="M4,10.8C4,10.8,4,10.8,4,10.8C4,10.9,4,11.1,3.9,11.1C3.9,11,3.8,10.8,4,10.8z"/>
	<path class="st0" d="M2.1,16.7c0-0.1,0.1-0.2,0.2-0.2c0,0,0,0,0,0C2.4,16.7,2.3,16.7,2.1,16.7L2.1,16.7z"/>
	<path class="st0" d="M33.4,12.2c0,0.1-0.1,0.1-0.2,0.1C33.2,12.2,33.3,12.2,33.4,12.2C33.4,12.2,33.4,12.2,33.4,12.2z"/>
	<path class="st0" d="M33.4,12.2C33.4,12.2,33.4,12.2,33.4,12.2c0-0.2,0.1-0.2,0.2-0.2C33.6,12.1,33.5,12.2,33.4,12.2z"/>
	<path class="st0" d="M47.4,43.4c0-0.1,0-0.2,0-0.2C47.4,43.3,47.4,43.4,47.4,43.4z"/>
	<path class="st0" d="M2.4,43.2c0,0,0,0.1,0,0.1C2.4,43.3,2.4,43.3,2.4,43.2z"/>
	<path class="st0" d="M2.2,16.7c0.1,0,0.2-0.1,0.2-0.2c0.3-0.1,0.6-0.2,0.9-0.3c0,0,0.1,0,0.1,0c0.2,0,0.4,0,0.6,0
		c8.6,0,17.2,0,25.7,0c0.2,0,0.5,0,0.7,0c0.2,0,0.5,0,0.7-0.3l0,0c0.3,0,0.3-0.2,0.6-0.3c-0.1,0.5-0.6,0.9-1.2,0.9
		c-0.2,0-0.4,0-0.6,0c-8.7,0-17.3,0-26,0c-0.7,0-1.4,0.1-1.9,0.6c-0.1,0.1-0.2,0.1-0.3,0.1c0,0,0-0.1,0-0.1
		C1.9,17.1,2,16.9,2.2,16.7z"/>
	<path class="st1" d="M4.5,16.1c0-0.1,0-0.3,0-0.4c0.2-0.1,0.3-0.2,0.3-0.4c-0.1-0.6,0.3-0.5,0.7-0.5c7.8,0,15.6,0,23.4,0
		c0.4,0,0.7,0,1.1,0c0.3,0,0.5,0,0.8,0c0,0,0,0,0,0.1c-0.2,0-0.3,0-0.5,0c-8.3,0-16.6,0-25,0c-0.4,0-0.4,0.2-0.3,0.5
		C4.9,15.7,4.9,16,5.4,16c8,0,16,0,23.9,0c0.7,0,1.3-0.1,1.9-0.5c0.3-0.3,0.3-0.4,0-0.6c0.2-0.1,0.4-0.2,0.6-0.3
		c-0.1-0.1-0.3,0.1-0.4-0.2c0.3-0.1,0.6-0.2,0.8-0.3c0,0.1,0,0.1,0,0.2c-0.1,0.1-0.1,0.3-0.2,0.4c-0.3,0.4-0.5,1-1,1.4c0,0,0,0,0,0
		c-0.5,0-0.9,0.2-1.4,0.2c-8,0-16.1,0-24.1,0C5.2,16.1,4.9,16.1,4.5,16.1z"/>
	<path class="st0" d="M31.1,16c0.5-0.4,0.6-0.9,1-1.4c0,0.4-0.3,0.7-0.4,1.1C31.4,15.7,31.3,16,31.1,16z"/>
	<path class="st0" d="M32.2,14.2c0-0.1,0-0.1,0-0.2c0.1,0,0.1-0.1,0-0.1c0-0.1,0.1-0.1,0.1-0.2c0.1-0.3,0.3-0.5,0.4-0.9
		c0.1,0,0.1,0,0.2,0c0,0,0,0,0,0C32.7,13.4,32.6,13.9,32.2,14.2z"/>
	<path class="st0" d="M48.2,22.2C48.2,22.3,48.2,22.3,48.2,22.2C48.1,22.3,48.1,22.3,48.2,22.2z"/>
	<path class="st0" d="M47.9,27.5c0,1.1-0.1,2.1-0.1,3.2c-0.1,1.9-0.1,3.8-0.2,5.6c-0.5,0.2-1,0.2-1.5,0.2c-14.1,0-28.3,0-42.4,0
		c-0.5,0-1-0.1-1.5-0.3c-0.1-0.4-0.1-0.8-0.1-1.2c0-2.4-0.1-4.8-0.2-7.2c14.9,0,29.9,0,44.8,0C47.1,27.7,47.5,27.7,47.9,27.5z"/>
	<path class="st0" d="M2.4,40.5c0.1-1.2-0.2-2.3-0.1-3.5c0.4,0.4,0.8,0.2,1.1,0.2c14.2,0,28.5,0,42.7,0c0.4,0,0.9,0.2,1.3,0
		c0,1.2-0.1,2.3-0.1,3.5c-0.4-0.1-0.8-0.2-1.2-0.2C31.6,40.5,17,40.5,2.4,40.5z"/>
	<path class="st0" d="M47.3,41.9c0,0.7-0.1,1.3-0.1,2c-0.4,0-0.8-0.1-1.2-0.1c-14.3,0-28.5,0-42.8,0c-0.3,0-0.5,0-0.7,0.1
		c0-0.6-0.1-1.2-0.1-1.8c14.5,0,29,0,43.5,0C46.4,42.1,46.9,42.2,47.3,41.9z"/>
	<path class="st0" d="M5.1,8.9c0.2,0,0.3,0,0.5-0.1c4.6,0,9.2,0,13.9,0c0.4,0.1,0.8,0.2,0.9,0.6c0,0.1,0.1,0.2,0,0.2
		c-0.3-0.4-0.6-0.5-1.1-0.5c-4.5,0-9,0-13.5,0C5.5,9.1,5.2,9.2,5,9.3c-0.1,0.1-0.2,0.1-0.3,0C4.8,9.1,5,9.1,5.1,8.9z"/>
	<path class="st0" d="M4.3,10.3c0-0.1,0-0.2,0.1-0.2C4.4,10.1,4.4,10.2,4.3,10.3z"/>
	<path class="st0" d="M4.6,9.7c0-0.1,0-0.1,0-0.2C4.7,9.6,4.7,9.6,4.6,9.7z"/>
	<path class="st0" d="M4.4,10.1c0-0.1,0-0.2,0.1-0.2C4.5,10,4.5,10,4.4,10.1z"/>
	<path class="st0" d="M4,10.8c-0.1-0.1,0-0.1,0.1-0.2C4.1,10.7,4.1,10.8,4,10.8z"/>
	<path class="st0" d="M4.1,10.6c0-0.1,0-0.2,0.1-0.2C4.2,10.5,4.2,10.6,4.1,10.6z"/>
	<path class="st0" d="M4.2,10.4c0-0.1,0-0.2,0.1-0.2C4.3,10.3,4.3,10.4,4.2,10.4z"/>
	<path class="st0" d="M2.6,43.6c0.2-0.1,0.5-0.2,0.7-0.2c14.3,0,28.5,0,42.8,0c0.4,0,0.8,0.1,1.2,0.2c0,0.3,0,0.5,0,0.8
		c-0.2,0.3-0.5,0.4-0.8,0.4c-14.1,0-28.2,0-42.4,0c-0.4,0-0.8-0.1-1.1-0.1C2.6,44.6,2.5,44.3,2.6,43.6z"/>
	<path class="st0" d="M32.7,12.9c0,0.3-0.3,0.6-0.4,0.9c-0.6-0.1-1.2,0.1-1.9,0.1c-8.3,0-16.6,0-25,0c-0.8,0-0.8,0-1.1,0.8
		c-0.1,0-0.1,0.1-0.2,0.2c-0.1,0.4-0.7,0.6-1,0.4c-0.1-0.1-0.1-0.2-0.1-0.3c0-0.3,0-0.6,0-0.8c0.2-0.1,0.5-0.1,0.7-0.1
		c0.2,0,0.5,0,0.5-0.3c0-0.1,0.1-0.1,0.3-0.2c0.3-0.1,0.5-0.1,0.8-0.1c8.2,0,16.4,0,24.6,0c0.6,0,1-0.3,1.4-0.7c0.2,0,0.4,0,0.6,0
		c0.2,0.1,0.4,0.1,0.6,0C32.6,12.8,32.7,12.8,32.7,12.9C32.7,12.8,32.7,12.9,32.7,12.9z"/>
	<path class="st0" d="M32.7,12.9C32.7,12.9,32.7,12.8,32.7,12.9c0.1-0.2,0.1-0.2,0.2-0.3c0,0.1,0,0.2,0,0.3
		C32.8,12.9,32.8,12.9,32.7,12.9z"/>
	<path class="st0" d="M32.9,12.6c0,0,0.1-0.1,0.1-0.1C33,12.6,33,12.6,32.9,12.6z"/>
	<path class="st0" d="M32.5,12.8c-0.2,0.1-0.4,0.1-0.6,0C32.1,12.8,32.3,12.8,32.5,12.8z"/>
	<path class="st2" d="M32.3,13.9c0,0.1,0,0.1,0,0.1c-0.3,0.1-0.6,0.2-0.8,0.3c0.1,0.2,0.3,0.1,0.4,0.2c-0.2,0.1-0.4,0.2-0.6,0.3
		c0.4,0.2,0.4,0.4,0,0.6c-0.6,0.4-1.2,0.5-1.9,0.5c-8,0-16,0-23.9,0c-0.5,0-0.5-0.2-0.4-0.6c0.2,0,0.3,0,0.5,0c7.9,0,15.7,0,23.6,0
		c0.1,0,0.3,0,0.4,0c0.3-0.1,0.7,0,0.9-0.5c0.2,0,0.3,0,0.5,0c0,0,0,0,0-0.1c-0.3,0-0.5,0-0.8,0c0-0.3,0.5,0,0.5-0.3
		c0.1,0,0.3,0,0.4-0.1c-0.3,0-0.6,0-0.8,0c0.1-0.2,0.2-0.1,0.4-0.2c0.2,0,0.5,0,0.6-0.3C31.5,13.9,31.9,13.9,32.3,13.9z"/>
	<path class="st3" d="M31.1,13.9c-0.1,0.3-0.3,0.2-0.6,0.3c-0.1,0-0.3,0-0.4,0.2c-0.4,0-0.8,0-1.2,0c-6.3,0-12.5,0-18.8,0
		c-1.8,0-3.6,0-5.4,0c0-0.3-0.1-0.5,0.3-0.5c8.6,0,17.1,0,25.7,0C30.9,13.9,31,13.9,31.1,13.9z"/>
	<path class="st3" d="M30.5,14.5c0,0.3-0.4,0.1-0.5,0.3c-0.4,0-0.7,0-1.1,0c-7.8,0-15.6,0-23.4,0c-0.4,0-0.8-0.1-0.7,0.5
		c0,0.2-0.1,0.3-0.3,0.4c0-0.2,0-0.4,0-0.6c0.1-0.2,0.2-0.4,0.4-0.6c0.2,0,0.3,0,0.5,0c6.1,0,12.2,0,18.3,0
		C26,14.5,28.2,14.5,30.5,14.5z"/>
	<path class="st0" d="M4.5,16.1c0.3,0,0.7,0,1,0c8,0,16.1,0,24.1,0c0.5,0,0.9-0.2,1.4-0.2c-0.2,0.2-0.4,0.2-0.7,0.3
		c-0.2,0-0.5,0-0.7,0c-8.6,0-17.2,0-25.7,0c-0.2,0-0.4,0-0.6,0C3.7,16,4.2,16.2,4.5,16.1z"/>
	<path class="st1" d="M30.5,14.5c-2.3,0-4.5,0-6.8,0c-6.1,0-12.2,0-18.3,0c-0.2,0-0.3,0-0.5,0c0,0-0.1,0-0.1,0c0,0,0-0.1,0-0.1
		c1.8,0,3.6,0,5.4,0c6.3,0,12.5,0,18.8,0c0.4,0,0.8,0,1.2,0c0.3,0,0.5,0,0.8,0C30.8,14.5,30.6,14.4,30.5,14.5z"/>
	<path class="st4" d="M4.8,14.5C4.8,14.5,4.8,14.5,4.8,14.5c0,0.2-0.1,0.4-0.3,0.7C4.6,14.9,4.3,14.5,4.8,14.5z"/>
	<path class="st0" d="M47.5,37.9c-0.4,0.1-0.9,0-1.3,0c-14.2,0-28.5,0-42.7,0c-0.4,0-0.8,0.1-1.1-0.1c0-0.6-0.1-1.1-0.1-1.7
		c15.1,0,30.3,0,45.4,0C47.5,36.7,47.5,37.3,47.5,37.9z"/>
	<path class="st0" d="M47.6,36.1c-15.1,0-30.3,0-45.4,0c0-0.4,0-0.7,0-1.1c0-0.2,0-0.5,0-0.7c0.5,0.2,1,0.2,1.5,0.2
		c14.1,0,28.3,0,42.4,0c0.5,0,1,0,1.5-0.1C47.6,35,47.6,35.6,47.6,36.1z"/>
	<path class="st4" d="M30.3,14.9c-0.2,0.4-0.6,0.4-0.9,0.5c-0.1,0-0.2,0-0.4,0c-7.9,0-15.7,0-23.6,0c-0.2,0-0.3,0-0.5,0
		c0-0.2-0.1-0.5,0.3-0.5C13.7,14.9,22,14.9,30.3,14.9z"/>
</g>
</svg>
