<?xml version="1.0" encoding="utf-8"?>
<!-- Generator: Adobe Illustrator 19.2.1, SVG Export Plug-In . SVG Version: 6.00 Build 0)  -->
<svg version="1.1" id="Layer_1" xmlns="http://www.w3.org/2000/svg" xmlns:xlink="http://www.w3.org/1999/xlink" x="0px" y="0px"
	 viewBox="0 0 50 50" style="enable-background:new 0 0 50 50;" xml:space="preserve">
<style type="text/css">
	.st0{fill:#C9C9C9;}
	.st1{fill:#858589;}
	.st2{fill:#F5F5F5;}
</style>
<g>
	<path class="st0" d="M43.7,45c-0.5,0-0.9-0.2-1.3-0.5c-0.8-0.8-1.5-1.5-2.3-2.3c-0.5-0.5-1.1-1-1.6-1.6c-0.5-0.5-1.1-1.1-1.6-1.6
		s-1.1-1-1.6-1.5c-0.4-0.4-0.9-0.9-1.3-1.4c-0.4-0.4-0.9-0.8-1.3-1.3c-0.4-0.5-0.9-0.9-1.3-1.3c-0.3-0.4-0.7-0.7-1-1
		c-0.2-0.2-0.4-0.4-0.6-0.6c-0.2-0.2-0.2-0.2-0.4-0.1c-0.9,0.7-2,1.3-3,1.8c-0.8,0.4-1.6,0.6-2.5,0.8c-1.5,0.4-3.1,0.5-4.7,0.4
		c-0.6,0-1.1-0.1-1.7-0.2c-0.9-0.2-1.8-0.4-2.6-0.7c-1-0.4-2-0.9-2.9-1.5c-0.7-0.5-1.4-1-2.1-1.6c-1-0.9-1.9-2-2.6-3.1
		c-0.8-1.3-1.4-2.7-1.8-4.2c-0.2-0.9-0.4-1.9-0.4-2.8c-0.1-0.9,0-1.7,0-2.5c0.1-0.9,0.3-1.8,0.5-2.6c0.3-1,0.7-1.9,1.1-2.8
		c0.7-1.3,1.5-2.4,2.5-3.5c1.1-1.2,2.4-2.1,3.8-2.9c0.7-0.4,1.5-0.7,2.2-1c0.7-0.2,1.4-0.4,2-0.5c0.9-0.2,1.7-0.3,2.6-0.3
		c0.6,0,1.1,0,1.7,0.1c0.6,0,1.2,0.2,1.8,0.3c0.4,0.1,0.9,0.2,1.3,0.4c0.9,0.3,1.8,0.7,2.7,1.1c0.6,0.3,1.1,0.7,1.6,1
		c0.7,0.5,1.3,1.1,1.9,1.7c1.1,1.1,2,2.4,2.7,3.9c0.6,1.2,1,2.4,1.3,3.7c0.2,0.8,0.2,1.7,0.3,2.5c0,0.7,0,1.5-0.1,2.2
		s-0.2,1.4-0.4,2c-0.2,0.7-0.4,1.3-0.6,1.9c-0.4,1-0.9,2-1.6,2.9c-0.2,0.2-0.3,0.5-0.5,0.7c-0.1,0.1,0,0.2,0.1,0.3
		c0.9,0.9,1.7,1.7,2.6,2.6c2.2,2.2,4.4,4.4,6.6,6.6c1.1,1.1,2.2,2.2,3.3,3.3c0.4,0.4,0.6,0.7,0.7,1.3c0,0.5-0.1,1-0.5,1.4
		C44.6,44.8,44.2,45,43.7,45z M20.4,4.8c-2.7,0-5.1,0.5-7.2,1.8c-4.4,2.4-7,6.1-7.8,11.1c-0.4,2.4-0.2,4.7,0.6,7
		c1,3,2.8,5.4,5.4,7.3c3.5,2.5,7.3,3.3,11.5,2.6c2.4-0.4,4.5-1.4,6.5-2.9c0.2-0.1,0.3-0.1,0.4,0c2.8,2.8,5.6,5.6,8.3,8.4
		c1.4,1.4,2.8,2.8,4.2,4.2c0.5,0.5,1.2,0.8,1.9,0.5c1.2-0.5,1.4-1.9,0.5-2.9c-4.2-4.2-8.4-8.4-12.6-12.6c-0.1-0.1-0.2-0.2,0-0.4
		c2.2-2.9,3.3-6.2,3.1-9.9c-0.1-1.3-0.3-2.6-0.7-3.9c-1.1-3.2-3-5.8-5.7-7.7C26.2,5.7,23.4,4.8,20.4,4.8z"/>
	<path class="st1" d="M20.4,4.8c2.9,0,5.8,0.9,8.4,2.7c2.8,1.9,4.7,4.5,5.7,7.7c0.4,1.3,0.7,2.6,0.7,3.9c0.2,3.7-0.9,7-3.1,9.9
		c-0.1,0.2-0.1,0.3,0,0.4c4.2,4.2,8.4,8.4,12.6,12.6c0.9,0.9,0.7,2.4-0.5,2.9c-0.7,0.3-1.4,0-1.9-0.5c-1.4-1.4-2.8-2.8-4.2-4.2
		c-2.8-2.8-5.6-5.6-8.3-8.4c-0.1-0.1-0.2-0.2-0.4,0c-1.9,1.5-4.1,2.5-6.5,2.9c-4.2,0.7-8-0.1-11.5-2.6C8.8,30.2,7,27.8,6,24.8
		c-0.8-2.3-1-4.7-0.6-7.1c0.8-5,3.4-8.7,7.8-11.1C15.4,5.4,17.8,4.8,20.4,4.8z M8.6,19.9c0,6.4,5.3,11.9,12,11.7
		c6.2-0.2,11.3-5.2,11.3-11.7c0-6.7-5.6-11.9-12.1-11.7C13.7,8.4,8.6,13.4,8.6,19.9z"/>
	<path class="st2" d="M8.6,19.9c0-6.4,5.2-11.5,11.3-11.7C26.4,8,32,13.2,32,19.9c0,6.5-5.2,11.5-11.3,11.7
		C13.8,31.7,8.5,26.2,8.6,19.9z"/>
</g>
</svg>
